<svg width="296" height="58" viewBox="0 0 296 58" fill="none" xmlns="http://www.w3.org/2000/svg">
<ellipse cx="10.2276" cy="47.0445" rx="10.2276" ry="10.9556" fill="#FCFFF5"/>
<ellipse cx="21.6585" cy="23.2" rx="21.6585" ry="23.2" fill="#FCFFF5"/>
<ellipse cx="48.7317" cy="36.7333" rx="12.6341" ry="13.5333" fill="#FCFFF5"/>
<ellipse cx="63.7723" cy="21.9111" rx="9.62601" ry="10.3111" fill="#FCFFF5"/>
<ellipse cx="84.8293" cy="25.1333" rx="16.2439" ry="17.4" fill="#FCFFF5"/>
<ellipse cx="95.0569" cy="36.0889" rx="9.62601" ry="10.3111" fill="#FCFFF5"/>
<ellipse cx="107.089" cy="34.8" rx="6.01626" ry="6.44444" fill="#FCFFF5"/>
<ellipse cx="120.927" cy="17.4" rx="16.2439" ry="17.4" fill="#FCFFF5"/>
<ellipse cx="135.967" cy="34.8" rx="9.62601" ry="10.3111" fill="#FCFFF5"/>
<ellipse cx="140.78" cy="21.9111" rx="3.60976" ry="3.86667" fill="#FCFFF5"/>
<ellipse cx="148.602" cy="26.4222" rx="5.41463" ry="5.8" fill="#FCFFF5"/>
<ellipse cx="153.415" cy="17.4" rx="5.41463" ry="5.8" fill="#FCFFF5"/>
<ellipse cx="163.642" cy="28.3556" rx="15.6423" ry="16.7556" fill="#FCFFF5"/>
<ellipse cx="176.276" cy="17.4" rx="1.80488" ry="1.93333" fill="#FCFFF5"/>
<ellipse cx="184.098" cy="18.0445" rx="6.01626" ry="6.44444" fill="#FCFFF5"/>
<ellipse cx="188.309" cy="25.1333" rx="4.21138" ry="4.51111" fill="#FCFFF5"/>
<ellipse cx="187.106" cy="30.2889" rx="1.80488" ry="1.93333" fill="#FCFFF5"/>
<ellipse cx="193.724" cy="29.6445" rx="3.60976" ry="3.86667" fill="#FCFFF5"/>
<ellipse cx="198.537" cy="24.4889" rx="13.2358" ry="14.1778" fill="#FCFFF5"/>
<ellipse cx="200.943" cy="12.8889" rx="7.21951" ry="7.73333" fill="#FCFFF5"/>
<ellipse cx="205.756" cy="28.3555" rx="4.81301" ry="5.15556" fill="#FCFFF5"/>
<ellipse cx="214.78" cy="23.8444" rx="6.61789" ry="7.08889" fill="#FCFFF5"/>
<ellipse cx="223.805" cy="27.0667" rx="6.01626" ry="6.44444" fill="#FCFFF5"/>
<ellipse cx="232.228" cy="33.5111" rx="9.62601" ry="10.3111" fill="#FCFFF5"/>
<ellipse cx="241.252" cy="26.4222" rx="5.41463" ry="5.8" fill="#FCFFF5"/>
<ellipse cx="244.862" cy="12.2444" rx="4.21138" ry="4.51111" fill="#FCFFF5"/>
<ellipse cx="248.472" cy="29" rx="5.41463" ry="5.8" fill="#FCFFF5"/>
<ellipse cx="253.285" cy="22.5555" rx="3.00813" ry="3.22222" fill="#FCFFF5"/>
<ellipse cx="258.699" cy="28.3555" rx="4.81301" ry="5.15556" fill="#FCFFF5"/>
<ellipse cx="270.13" cy="17.4" rx="7.82114" ry="8.37778" fill="#FCFFF5"/>
<ellipse cx="262.309" cy="21.9111" rx="3.60976" ry="3.86667" fill="#FCFFF5"/>
<ellipse cx="263.512" cy="34.8" rx="3.60976" ry="3.86667" fill="#FCFFF5"/>
<ellipse cx="270.13" cy="32.8667" rx="1.80488" ry="1.93333" fill="#FCFFF5"/>
<ellipse cx="268.325" cy="34.8" rx="1.20325" ry="1.28889" fill="#FCFFF5"/>
<ellipse cx="276.748" cy="28.3556" rx="6.01626" ry="6.44444" fill="#FCFFF5"/>
<ellipse cx="282.163" cy="35.4444" rx="4.21138" ry="4.51111" fill="#FCFFF5"/>
<ellipse cx="283.366" cy="26.4222" rx="4.21138" ry="4.51111" fill="#FCFFF5"/>
<ellipse cx="288.781" cy="32.2222" rx="4.81301" ry="5.15556" fill="#FCFFF5"/>
<ellipse cx="291.187" cy="21.9111" rx="4.81301" ry="5.15556" fill="#FCFFF5"/>
<ellipse cx="280.959" cy="43.1778" rx="6.61789" ry="7.08889" fill="#FCFFF5"/>
<ellipse cx="274.943" cy="49.6222" rx="4.21138" ry="4.51111" fill="#FCFFF5"/>
<path d="M61.8086 40.5742C60.8945 40.5977 60.1445 40.4336 59.5586 40.082C58.9492 39.7305 58.4805 39.2148 58.1523 38.5352C57.8008 37.8789 57.5781 37.0703 57.4844 36.1094C57.3906 35.1719 57.3906 34.1406 57.4844 33.0156C57.6016 32.1484 57.8125 31.2461 58.1172 30.3086C58.375 29.5117 58.7734 28.6328 59.3125 27.6719C59.8281 26.7109 60.5312 25.7734 61.4219 24.8594C61.6094 24.9062 61.7617 24.9648 61.8789 25.0352C61.9961 25.082 62.0898 25.1406 62.1602 25.2109C62.2305 25.3047 62.2773 25.3867 62.3008 25.457C62.3477 25.7148 62.2773 26.0078 62.0898 26.3359C61.9023 26.6641 61.7148 27.0156 61.5273 27.3906C61.0117 28.4688 60.625 29.4883 60.3672 30.4492C60.1094 31.4102 59.9453 32.3008 59.875 33.1211C59.8281 33.8242 59.8398 34.457 59.9102 35.0195C59.957 35.6055 60.0391 36.0977 60.1562 36.4961C60.2734 36.918 60.4023 37.2344 60.543 37.4453C60.6836 37.6797 60.8125 37.7969 60.9297 37.7969C61.0469 37.7969 61.1641 37.7148 61.2812 37.5508C61.4219 37.3867 61.5508 37.1875 61.668 36.9531C61.8086 36.7188 61.9727 36.3555 62.1602 35.8633C62.3477 35.3945 62.5469 34.8438 62.7578 34.2109C62.9688 33.5781 63.168 32.8984 63.3555 32.1719C63.5664 31.4219 63.7539 30.6719 63.918 29.9219C64.2461 28.4219 64.5977 26.7344 64.9727 24.8594C65.3477 22.9609 65.8984 20.9805 66.625 18.918C66.8594 18.0508 67.1523 17.1016 67.5039 16.0703C67.7852 15.1797 68.1367 14.1484 68.5586 12.9766C69.0039 11.7812 69.5078 10.4922 70.0703 9.10938C70.0703 8.99219 70.1641 8.88672 70.3516 8.79297C70.5625 8.67578 70.7969 8.55859 71.0547 8.44141C71.3359 8.32422 71.6523 8.20703 72.0039 8.08984C72.4727 7.92578 72.8359 7.83203 73.0938 7.80859C73.375 7.78516 73.5859 7.82031 73.7266 7.91406C73.8672 8.00781 73.9609 8.13672 74.0078 8.30078C74.0547 8.44141 74.0781 8.60547 74.0781 8.79297C74.125 9.56641 74.1484 10.293 74.1484 10.9727C74.1719 11.6523 74.1953 12.25 74.2188 12.7656C74.2422 13.375 74.2539 13.9258 74.2539 14.418C74.2773 15.0742 74.2422 15.9531 74.1484 17.0547C74.0547 18.1328 73.9492 19.2695 73.832 20.4648C73.7383 21.6602 73.6445 22.832 73.5508 23.9805C73.4805 25.1055 73.4688 26.043 73.5156 26.793C73.5156 27.1914 73.5273 27.5664 73.5508 27.918C73.5977 28.2461 73.6445 28.5742 73.6914 28.9023C73.9961 28.0586 74.3359 27.1797 74.7109 26.2656C75.0859 25.3281 75.4609 24.4375 75.8359 23.5938C76.2109 22.7266 76.5625 21.9297 76.8906 21.2031C77.2188 20.4531 77.4766 19.832 77.6641 19.3398C77.9453 18.6836 78.3203 17.8516 78.7891 16.8438C79.2578 15.8359 79.7266 14.8281 80.1953 13.8203C80.6875 12.8125 81.1328 11.8867 81.5312 11.043C81.9531 10.1992 82.2578 9.61328 82.4453 9.28516C82.5859 9.05078 82.8203 8.83984 83.1484 8.65234C83.5 8.46484 83.8633 8.30078 84.2383 8.16016C84.6367 8.01953 85 7.92578 85.3281 7.87891C85.6797 7.80859 85.9141 7.79687 86.0312 7.84375C86.3359 7.91406 86.5469 8.00781 86.6641 8.125C86.8047 8.24219 86.8867 8.32422 86.9102 8.37109C86.957 8.46484 86.9922 8.62891 87.0156 8.86328C87.0391 9.07422 87.0273 9.41406 86.9805 9.88281C86.9336 10.4453 86.793 11.3008 86.5586 12.4492C86.3477 13.5977 86.0781 14.9102 85.75 16.3867C85.4453 17.8398 85.1055 19.3984 84.7305 21.0625C84.3789 22.7266 84.0391 24.3672 83.7109 25.9844C83.3828 27.5781 83.0898 29.0781 82.832 30.4844C82.5977 31.8906 82.4453 33.0742 82.375 34.0352C82.3281 35.1133 82.3984 36.0625 82.5859 36.8828C82.6562 37.2344 82.7617 37.5742 82.9023 37.9023C83.043 38.2305 83.2305 38.5117 83.4648 38.7461C83.6992 39.0039 83.9805 39.1914 84.3086 39.3086C84.6367 39.4258 85.0234 39.4609 85.4688 39.4141C84.8828 39.8125 84.3086 40.1055 83.7461 40.293C83.1836 40.4805 82.6328 40.5742 82.0938 40.5742C81.5078 40.5977 80.9922 40.5039 80.5469 40.293C80.1016 40.1055 79.7266 39.8242 79.4219 39.4492C79.1172 39.0977 78.8945 38.6641 78.7539 38.1484C78.6133 37.6562 78.5664 37.1055 78.6133 36.4961C78.6602 35.9336 78.8125 35.0078 79.0703 33.7188C79.3281 32.4297 79.6328 30.9766 79.9844 29.3594C80.3594 27.7188 80.7578 26.0195 81.1797 24.2617C81.625 22.4805 82.0352 20.8164 82.4102 19.2695C82.8086 17.6992 83.1484 16.3516 83.4297 15.2266C83.7109 14.1016 83.8867 13.3633 83.957 13.0117C84.0039 12.7305 84.0391 12.4727 84.0625 12.2383C84.1094 11.9805 84.1562 11.7578 84.2031 11.5703C83.9688 12.0391 83.6758 12.6016 83.3242 13.2578C82.9961 13.9141 82.6445 14.6172 82.2695 15.3672C81.8945 16.1172 81.5078 16.9023 81.1094 17.7227C80.7344 18.5195 80.3711 19.293 80.0195 20.043C79.4336 21.2617 78.8594 22.5156 78.2969 23.8047C77.7344 25.0703 77.2305 26.2773 76.7852 27.4258C76.3398 28.5742 75.9648 29.6055 75.6602 30.5195C75.3789 31.4336 75.2148 32.1367 75.168 32.6289V33.1211C75.168 33.2617 75.168 33.4258 75.168 33.6133C75.1914 33.8008 75.2266 33.9766 75.2734 34.1406L73.8672 35.2305C73.6562 35.3008 73.4688 35.3594 73.3047 35.4062C73.1641 35.4531 73.0234 35.4766 72.8828 35.4766C72.3438 35.4766 71.9336 35.1953 71.6523 34.6328C71.3711 34.1172 71.1133 33.1094 70.8789 31.6094C70.6445 30.1094 70.5742 28.2695 70.668 26.0898C70.7148 25.0117 70.7852 23.9219 70.8789 22.8203C70.9961 21.7188 71.1016 20.6641 71.1953 19.6562C71.3125 18.6484 71.418 17.7109 71.5117 16.8438C71.6055 15.9531 71.6523 15.1914 71.6523 14.5586C71.6758 14.0898 71.6641 13.668 71.6172 13.293C71.5703 12.8945 71.5234 12.5313 71.4766 12.2031C71.2656 12.7422 71.0312 13.4805 70.7734 14.418C70.5156 15.332 70.2461 16.3516 69.9648 17.4766C69.6836 18.6016 69.3906 19.7852 69.0859 21.0273C68.8047 22.2695 68.5234 23.4648 68.2422 24.6133C67.9844 25.7617 67.7383 26.8281 67.5039 27.8125C67.2695 28.7734 67.082 29.5469 66.9414 30.1328C66.707 31.0703 66.4727 32.1367 66.2383 33.332C66.0039 34.5273 65.7109 35.6523 65.3594 36.707C65.0078 37.7852 64.5508 38.6875 63.9883 39.4141C63.4258 40.1641 62.6992 40.5508 61.8086 40.5742ZM103.328 26.6875C102.625 27.7188 101.828 28.7266 100.938 29.7109C100.047 30.6719 99.0977 31.5391 98.0898 32.3125C97.1055 33.0625 96.0859 33.6719 95.0312 34.1406C94 34.6094 92.9922 34.8438 92.0078 34.8438C91.4922 34.8438 90.9297 34.7148 90.3203 34.457C89.7344 34.2227 89.1953 33.8477 88.7031 33.332C88.2109 32.8164 87.8125 32.1484 87.5078 31.3281C87.2266 30.5078 87.1445 29.5117 87.2617 28.3398C87.3555 27.3789 87.6484 26.3711 88.1406 25.3164C88.6562 24.2383 89.2773 23.2539 90.0039 22.3633C90.7539 21.4727 91.5859 20.7344 92.5 20.1484C93.4375 19.5625 94.375 19.2695 95.3125 19.2695C96.2031 19.2695 96.8477 19.4922 97.2461 19.9375C97.6445 20.3828 97.8203 20.9336 97.7734 21.5898C97.7031 22.3164 97.4922 22.9844 97.1406 23.5938C96.8125 24.2031 96.4141 24.7539 95.9453 25.2461C95.4766 25.7383 94.9727 26.1836 94.4336 26.582C93.918 26.9805 93.4258 27.3438 92.957 27.6719C92.4414 28.0234 91.9492 28.3633 91.4805 28.6914C91.0117 28.9961 90.6016 29.2773 90.25 29.5352C90.2734 30.1211 90.3789 30.6133 90.5664 31.0117C90.7539 31.4102 90.9883 31.7383 91.2695 31.9961C91.5508 32.2305 91.8672 32.4062 92.2188 32.5234C92.5938 32.6172 92.9688 32.6641 93.3438 32.6641C94.1406 32.6641 94.9727 32.418 95.8398 31.9258C96.707 31.4102 97.5508 30.8008 98.3711 30.0977C99.2148 29.3711 99.9883 28.6211 100.691 27.8477C101.418 27.0742 102.016 26.4062 102.484 25.8438C102.648 25.6562 102.812 25.5508 102.977 25.5273C103.164 25.4805 103.305 25.5039 103.398 25.5977C103.516 25.668 103.574 25.8086 103.574 26.0195C103.574 26.207 103.492 26.4297 103.328 26.6875ZM94.3281 21.2734C94.0469 21.2734 93.707 21.4141 93.3086 21.6953C92.9336 21.9766 92.5586 22.3867 92.1836 22.9258C91.8086 23.4414 91.457 24.0859 91.1289 24.8594C90.8008 25.6094 90.5547 26.4766 90.3906 27.4609C90.6719 27.25 90.9766 27.0391 91.3047 26.8281C91.6328 26.5938 91.9609 26.3477 92.2891 26.0898C93.2969 25.3164 94 24.6367 94.3984 24.0508C94.7969 23.4648 95.0195 22.9609 95.0664 22.5391C95.1133 22.0938 95.0664 21.7773 94.9258 21.5898C94.7852 21.3789 94.5859 21.2734 94.3281 21.2734ZM118.832 27.0039C118.504 27.4727 118.082 28.0586 117.566 28.7617C117.051 29.4414 116.512 30.1328 115.949 30.8359C115.41 31.5156 114.871 32.1484 114.332 32.7344C113.816 33.2969 113.383 33.6953 113.031 33.9297C112.797 34.0703 112.527 34.1875 112.223 34.2812C111.918 34.375 111.602 34.4336 111.273 34.457C110.969 34.4805 110.676 34.457 110.395 34.3867C110.113 34.3398 109.867 34.2461 109.656 34.1055C109.445 33.9414 109.27 33.707 109.129 33.4023C109.012 33.1445 108.895 32.8047 108.777 32.3828C108.684 31.9609 108.648 31.4336 108.672 30.8008C108.109 31.7383 107.488 32.4648 106.809 32.9805C106.129 33.4727 105.484 33.8359 104.875 34.0703C104.172 34.3281 103.469 34.4805 102.766 34.5273C102.438 34.5273 102.086 34.4102 101.711 34.1758C101.336 33.9648 101.02 33.625 100.762 33.1562C100.504 32.6641 100.34 32.043 100.27 31.293C100.199 30.5195 100.293 29.6055 100.551 28.5508C100.879 27.1211 101.395 25.8203 102.098 24.6484C102.824 23.4766 103.609 22.4805 104.453 21.6602C105.297 20.8164 106.129 20.1836 106.949 19.7617C107.77 19.3398 108.449 19.1523 108.988 19.1992C109.621 19.3164 110.137 19.5039 110.535 19.7617C110.863 19.9961 111.074 20.3477 111.168 20.8164C111.285 21.2617 111.098 21.8594 110.605 22.6094C110.934 22.5391 111.203 22.4922 111.414 22.4688C111.648 22.4453 111.824 22.4336 111.941 22.4336C112.082 22.4336 112.176 22.4453 112.223 22.4688C112.246 22.5156 112.258 22.6211 112.258 22.7852C112.258 22.9258 112.223 23.1953 112.152 23.5938C112.082 23.9922 111.977 24.5312 111.836 25.2109C111.695 25.8906 111.508 26.7695 111.273 27.8477C111.227 28.0586 111.18 28.2578 111.133 28.4453C111.109 28.6094 111.074 28.7852 111.027 28.9727C111.004 29.1367 110.969 29.3359 110.922 29.5703C110.875 29.8047 110.816 30.0977 110.746 30.4492C110.723 30.6602 110.711 30.8945 110.711 31.1523C110.734 31.3867 110.781 31.6094 110.852 31.8203C110.922 32.0312 111.027 32.207 111.168 32.3477C111.332 32.4648 111.555 32.5234 111.836 32.5234C112.07 32.5234 112.375 32.3828 112.75 32.1016C113.125 31.7969 113.523 31.4219 113.945 30.9766C114.367 30.5078 114.801 30.0039 115.246 29.4648C115.715 28.9023 116.148 28.3633 116.547 27.8477C116.945 27.332 117.297 26.875 117.602 26.4766C117.93 26.0781 118.164 25.7852 118.305 25.5977C118.492 25.3867 118.68 25.2695 118.867 25.2461C119.055 25.1992 119.195 25.2461 119.289 25.3867C119.383 25.5273 119.395 25.7383 119.324 26.0195C119.277 26.3008 119.113 26.6289 118.832 27.0039ZM108.531 28.5508C108.648 28.082 108.789 27.5312 108.953 26.8984C109.117 26.2656 109.258 25.6562 109.375 25.0703C109.492 24.4844 109.574 24.0039 109.621 23.6289C109.691 23.2305 109.68 23.043 109.586 23.0664C109.469 23.0898 109.34 23.125 109.199 23.1719C109.082 23.2188 108.93 23.2539 108.742 23.2773C108.555 23.3008 108.367 23.3359 108.18 23.3828C108.367 23.0078 108.473 22.7031 108.496 22.4688C108.543 22.2109 108.555 22.0117 108.531 21.8711C108.508 21.707 108.461 21.5781 108.391 21.4844C108.133 21.2734 107.676 21.4492 107.02 22.0117C106.387 22.5508 105.648 23.5586 104.805 25.0352C104.453 25.6445 104.172 26.3008 103.961 27.0039C103.75 27.6836 103.598 28.3281 103.504 28.9375C103.434 29.5469 103.422 30.0859 103.469 30.5547C103.516 31 103.609 31.293 103.75 31.4336C104.008 31.6914 104.301 31.8203 104.629 31.8203C104.957 31.7969 105.285 31.7031 105.613 31.5391C105.965 31.3516 106.305 31.1172 106.633 30.8359C106.984 30.5547 107.289 30.2617 107.547 29.957C107.828 29.6523 108.051 29.3711 108.215 29.1133C108.402 28.8555 108.508 28.668 108.531 28.5508ZM115.949 33.4375C116.98 29.1016 117.801 25.6211 118.41 22.9961C119.043 20.3711 119.523 18.3672 119.852 16.9844C120.227 15.3438 120.484 14.207 120.625 13.5742C120.695 13.1289 120.754 12.6953 120.801 12.2734C120.848 11.8984 120.871 11.5117 120.871 11.1133C120.871 10.7148 120.836 10.3516 120.766 10.0234C120.953 9.90625 121.152 9.8125 121.363 9.74219C121.598 9.67188 121.82 9.61328 122.031 9.56641C122.289 9.49609 122.547 9.4375 122.805 9.39062C123.062 9.34375 123.297 9.32031 123.508 9.32031C123.695 9.32031 123.871 9.34375 124.035 9.39062C124.199 9.41406 124.305 9.48437 124.352 9.60156C124.492 9.71875 124.551 9.95312 124.527 10.3047C124.527 10.6562 124.504 11.0195 124.457 11.3945C124.363 11.8398 124.258 12.3203 124.141 12.8359C123.859 13.8437 123.473 15.2969 122.98 17.1953C122.559 18.8125 121.984 21.0156 121.258 23.8047C120.555 26.5938 119.664 30.1094 118.586 34.3516C118.469 34.4688 118.328 34.5508 118.164 34.5977C118 34.6445 117.848 34.668 117.707 34.668C117.543 34.668 117.367 34.6562 117.18 34.6328C117.016 34.5859 116.852 34.5156 116.688 34.4219C116.547 34.3281 116.406 34.1992 116.266 34.0352C116.125 33.8945 116.02 33.6953 115.949 33.4375ZM133.914 33.4375C134.945 29.1016 135.766 25.6211 136.375 22.9961C137.008 20.3711 137.488 18.3672 137.816 16.9844C138.191 15.3438 138.449 14.207 138.59 13.5742C138.66 13.1289 138.719 12.6953 138.766 12.2734C138.812 11.8984 138.836 11.5117 138.836 11.1133C138.836 10.7148 138.801 10.3516 138.73 10.0234C138.918 9.90625 139.117 9.8125 139.328 9.74219C139.562 9.67188 139.785 9.61328 139.996 9.56641C140.254 9.49609 140.512 9.4375 140.77 9.39062C141.027 9.34375 141.262 9.32031 141.473 9.32031C141.66 9.32031 141.836 9.34375 142 9.39062C142.164 9.41406 142.27 9.48437 142.316 9.60156C142.457 9.71875 142.516 9.95312 142.492 10.3047C142.492 10.6562 142.469 11.0195 142.422 11.3945C142.328 11.8398 142.223 12.3203 142.105 12.8359C141.824 13.8437 141.438 15.2969 140.945 17.1953C140.523 18.8125 139.949 21.0156 139.223 23.8047C138.52 26.5938 137.629 30.1094 136.551 34.3516C136.434 34.4688 136.293 34.5508 136.129 34.5977C135.965 34.6445 135.812 34.668 135.672 34.668C135.508 34.668 135.332 34.6562 135.145 34.6328C134.98 34.5859 134.816 34.5156 134.652 34.4219C134.512 34.3281 134.371 34.1992 134.23 34.0352C134.09 33.8945 133.984 33.6953 133.914 33.4375ZM150.051 13.293C149.98 13.5508 149.84 13.8086 149.629 14.0664C149.441 14.3008 149.219 14.5 148.961 14.6641C148.727 14.8047 148.48 14.8984 148.223 14.9453C147.965 14.9922 147.754 14.9453 147.59 14.8047C147.098 14.4297 146.84 14.0312 146.816 13.6094C146.793 13.1641 146.898 12.7539 147.133 12.3789C147.367 11.9805 147.66 11.6523 148.012 11.3945C148.363 11.1133 148.668 10.9492 148.926 10.9023C149.184 10.8555 149.395 10.9141 149.559 11.0781C149.746 11.2188 149.887 11.418 149.98 11.6758C150.074 11.9102 150.121 12.1797 150.121 12.4844C150.145 12.7891 150.121 13.0586 150.051 13.293ZM145.199 20.7812C145.316 20.6406 145.539 20.5234 145.867 20.4297C146.195 20.3359 146.535 20.2656 146.887 20.2188C147.238 20.1484 147.555 20.1133 147.836 20.1133C148.141 20.0898 148.316 20.0898 148.363 20.1133C148.387 20.1367 148.328 20.3828 148.188 20.8516C148.047 21.3203 147.871 21.8711 147.66 22.5039C147.449 23.1367 147.227 23.793 146.992 24.4727C146.758 25.1289 146.582 25.668 146.465 26.0898C146.348 26.5117 146.207 26.9922 146.043 27.5312C145.879 28.0469 145.727 28.5625 145.586 29.0781C145.469 29.5703 145.387 30.0391 145.34 30.4844C145.293 30.9297 145.328 31.2695 145.445 31.5039C145.562 31.7852 145.691 31.9844 145.832 32.1016C145.973 32.1953 146.125 32.2422 146.289 32.2422C146.758 32.2422 147.344 31.9844 148.047 31.4688C148.773 30.9531 149.5 30.3438 150.227 29.6406C150.977 28.9141 151.668 28.1875 152.301 27.4609C152.934 26.7109 153.402 26.1133 153.707 25.668C153.895 25.4336 154.082 25.2812 154.27 25.2109C154.48 25.1406 154.645 25.1523 154.762 25.2461C154.902 25.3398 154.973 25.4922 154.973 25.7031C154.996 25.9141 154.926 26.1602 154.762 26.4414C154.387 27.0977 153.836 27.8828 153.109 28.7969C152.383 29.6875 151.609 30.5547 150.789 31.3984C149.969 32.2188 149.16 32.9219 148.363 33.5078C147.59 34.0938 146.957 34.3984 146.465 34.4219C146.066 34.4453 145.668 34.375 145.27 34.2109C144.895 34.0703 144.543 33.8711 144.215 33.6133C143.91 33.332 143.652 33.0156 143.441 32.6641C143.23 32.2891 143.113 31.9023 143.09 31.5039C143.02 30.918 143.02 30.1211 143.09 29.1133C143.16 28.082 143.289 27.0391 143.477 25.9844C143.664 24.9062 143.898 23.8867 144.18 22.9258C144.484 21.9648 144.824 21.25 145.199 20.7812ZM157.152 32.8047C157.293 32.8984 157.469 32.9453 157.68 32.9453C157.914 32.9453 158.137 32.8984 158.348 32.8047C158.582 32.7109 158.793 32.582 158.98 32.418C159.191 32.2539 159.344 32.043 159.438 31.7852C159.531 31.5273 159.531 31.1641 159.438 30.6953C159.344 30.2031 159.191 29.6875 158.98 29.1484C158.793 28.5859 158.582 28.0234 158.348 27.4609C158.113 26.8984 157.914 26.3828 157.75 25.9141C157.609 25.5625 157.492 25.2344 157.398 24.9297C157.305 24.6719 157.211 24.4258 157.117 24.1914C157.047 23.9336 156.988 23.7578 156.941 23.6641C156.824 23.8516 156.613 24.1562 156.309 24.5781C156.027 25 155.711 25.4453 155.359 25.9141C155.031 26.3594 154.715 26.7812 154.41 27.1797C154.105 27.5547 153.895 27.8125 153.777 27.9531C153.59 28.1641 153.402 28.293 153.215 28.3398C153.051 28.3633 152.91 28.3281 152.793 28.2344C152.676 28.1172 152.605 27.9648 152.582 27.7773C152.582 27.5664 152.676 27.3203 152.863 27.0391C153.004 26.8516 153.215 26.5586 153.496 26.1602C153.777 25.7383 154.059 25.3164 154.34 24.8945C154.621 24.4492 154.879 24.0625 155.113 23.7344C155.348 23.3828 155.477 23.1719 155.5 23.1016C155.547 22.9141 155.477 22.668 155.289 22.3633C155.125 22.0586 155.102 21.707 155.219 21.3086C155.312 20.9805 155.523 20.6055 155.852 20.1836C156.18 19.7383 156.566 19.3398 157.012 18.9883C157.457 18.6367 157.914 18.3789 158.383 18.2148C158.852 18.0273 159.273 18.0273 159.648 18.2148C159.953 18.4023 160.199 18.6133 160.387 18.8477C160.574 19.0586 160.645 19.2812 160.598 19.5156C160.551 19.6328 160.48 19.7852 160.387 19.9727C160.293 20.1602 160.152 20.3945 159.965 20.6758C159.777 20.9336 159.508 21.2734 159.156 21.6953C159.227 22.2344 159.32 22.7266 159.438 23.1719C159.578 23.6172 159.707 24.0039 159.824 24.332C159.965 24.7305 160.117 25.0938 160.281 25.4219C160.492 25.8438 160.715 26.2773 160.949 26.7227C161.184 27.168 161.395 27.6133 161.582 28.0586C161.77 28.4805 161.922 28.8789 162.039 29.2539C162.156 29.6289 162.191 29.9453 162.145 30.2031C162.074 30.6016 161.863 31.082 161.512 31.6445C161.184 32.207 160.762 32.7578 160.246 33.2969C159.754 33.8125 159.18 34.2578 158.523 34.6328C157.891 35.0078 157.223 35.1953 156.52 35.1953C156.027 35.1953 155.547 35.043 155.078 34.7383C154.633 34.4336 154.246 34.082 153.918 33.6836C153.613 33.2617 153.379 32.8516 153.215 32.4531C153.074 32.0547 153.062 31.75 153.18 31.5391C153.32 31.2578 153.449 31.0352 153.566 30.8711C153.684 30.707 153.859 30.5195 154.094 30.3086C154.188 30.2383 154.305 30.1562 154.445 30.0625C154.562 29.9922 154.727 29.9219 154.938 29.8516C155.148 29.7812 155.395 29.6992 155.676 29.6055C155.91 30.332 156.121 30.9062 156.309 31.3281C156.496 31.7266 156.648 32.043 156.766 32.2773C156.906 32.5352 157.035 32.7109 157.152 32.8047ZM177.824 25.1055C177.918 24.9648 178.035 24.8828 178.176 24.8594C178.34 24.8125 178.469 24.8242 178.562 24.8945C178.656 24.9648 178.703 25.082 178.703 25.2461C178.727 25.4102 178.668 25.6328 178.527 25.9141C178.059 26.8047 177.438 27.7656 176.664 28.7969C175.914 29.8281 175.117 30.8008 174.273 31.7148C173.43 32.6055 172.609 33.3438 171.812 33.9297C171.016 34.5156 170.348 34.8086 169.809 34.8086C169.035 34.8086 168.391 34.6562 167.875 34.3516C167.359 34.0469 166.949 33.6719 166.645 33.2266C166.363 32.7812 166.164 32.3008 166.047 31.7852C165.93 31.2461 165.895 30.7539 165.941 30.3086C165.965 29.9336 166.047 29.2656 166.188 28.3047C166.328 27.3203 166.516 26.1953 166.75 24.9297C166.984 23.6406 167.242 22.2695 167.523 20.8164C167.828 19.3398 168.145 17.9219 168.473 16.5625C168.074 16.6094 167.676 16.6562 167.277 16.7031C166.879 16.75 166.516 16.7734 166.188 16.7734C165.438 16.7734 164.734 16.6914 164.078 16.5273C163.398 16.3398 162.895 16.1641 162.566 16C162.379 15.9063 162.297 15.7773 162.32 15.6133C162.344 15.4258 162.414 15.25 162.531 15.0859C162.648 14.8984 162.801 14.7461 162.988 14.6289C163.152 14.4883 163.305 14.418 163.445 14.418C163.891 14.4648 164.371 14.5117 164.887 14.5586C165.402 14.582 165.965 14.582 166.574 14.5586C167.02 14.5352 167.441 14.5 167.84 14.4531C168.262 14.4062 168.672 14.3477 169.07 14.2773C169.375 13.1523 169.668 12.1797 169.949 11.3594C170.254 10.5156 170.523 9.92969 170.758 9.60156C170.828 9.48437 170.98 9.39062 171.215 9.32031C171.473 9.22656 171.742 9.16797 172.023 9.14453C172.305 9.09766 172.574 9.09766 172.832 9.14453C173.09 9.16797 173.277 9.25 173.395 9.39062C173.512 9.57813 173.559 10.0586 173.535 10.832C173.512 11.6055 173.383 12.5898 173.148 13.7852C174.133 13.7852 175 13.8437 175.75 13.9609C176.523 14.0547 177.18 14.1719 177.719 14.3125C178.258 14.4297 178.691 14.5586 179.02 14.6992C179.348 14.8164 179.594 14.8984 179.758 14.9453C179.922 14.9922 180.004 15.1094 180.004 15.2969C180.027 15.4844 179.992 15.6836 179.898 15.8945C179.828 16.082 179.699 16.2461 179.512 16.3867C179.324 16.5273 179.113 16.5742 178.879 16.5273C178.645 16.5039 178.375 16.457 178.07 16.3867C177.789 16.3164 177.438 16.2578 177.016 16.2109C176.617 16.1641 176.137 16.1172 175.574 16.0703C175.012 16.0234 174.355 16 173.605 16C173.465 16 173.301 16.0117 173.113 16.0352C172.949 16.0352 172.773 16.0352 172.586 16.0352C172.492 16.4102 172.398 16.7852 172.305 17.1602C172.234 17.5117 172.129 17.8867 171.988 18.2852C171.684 19.2227 171.332 20.2422 170.934 21.3438C170.582 22.3047 170.16 23.4062 169.668 24.6484C169.176 25.8906 168.625 27.2148 168.016 28.6211C167.875 29.6289 167.887 30.4023 168.051 30.9414C168.238 31.457 168.461 31.832 168.719 32.0664C169.023 32.3242 169.398 32.4648 169.844 32.4883C170.195 32.5352 170.617 32.418 171.109 32.1367C171.625 31.832 172.152 31.4336 172.691 30.9414C173.23 30.4492 173.77 29.9102 174.309 29.3242C174.871 28.7383 175.387 28.1641 175.855 27.6016C176.324 27.0391 176.734 26.5352 177.086 26.0898C177.438 25.6211 177.684 25.293 177.824 25.1055ZM203.84 27.0039C203.512 27.4727 203.09 28.0586 202.574 28.7617C202.059 29.4414 201.52 30.1328 200.957 30.8359C200.418 31.5156 199.879 32.1484 199.34 32.7344C198.824 33.2969 198.391 33.6953 198.039 33.9297C197.805 34.0703 197.535 34.1875 197.23 34.2812C196.926 34.375 196.609 34.4336 196.281 34.457C195.977 34.4805 195.684 34.457 195.402 34.3867C195.121 34.3398 194.875 34.2461 194.664 34.1055C194.453 33.9414 194.277 33.707 194.137 33.4023C194.02 33.1445 193.902 32.8047 193.785 32.3828C193.691 31.9609 193.656 31.4336 193.68 30.8008C193.117 31.7383 192.496 32.4648 191.816 32.9805C191.137 33.4727 190.492 33.8359 189.883 34.0703C189.18 34.3281 188.477 34.4805 187.773 34.5273C187.445 34.5273 187.094 34.4102 186.719 34.1758C186.344 33.9648 186.027 33.625 185.77 33.1562C185.512 32.6641 185.348 32.043 185.277 31.293C185.207 30.5195 185.301 29.6055 185.559 28.5508C185.887 27.1211 186.402 25.8203 187.105 24.6484C187.832 23.4766 188.617 22.4805 189.461 21.6602C190.305 20.8164 191.137 20.1836 191.957 19.7617C192.777 19.3398 193.457 19.1523 193.996 19.1992C194.629 19.3164 195.145 19.5039 195.543 19.7617C195.871 19.9961 196.082 20.3477 196.176 20.8164C196.293 21.2617 196.105 21.8594 195.613 22.6094C195.941 22.5391 196.211 22.4922 196.422 22.4688C196.656 22.4453 196.832 22.4336 196.949 22.4336C197.09 22.4336 197.184 22.4453 197.23 22.4688C197.254 22.5156 197.266 22.6211 197.266 22.7852C197.266 22.9258 197.23 23.1953 197.16 23.5938C197.09 23.9922 196.984 24.5312 196.844 25.2109C196.703 25.8906 196.516 26.7695 196.281 27.8477C196.234 28.0586 196.188 28.2578 196.141 28.4453C196.117 28.6094 196.082 28.7852 196.035 28.9727C196.012 29.1367 195.977 29.3359 195.93 29.5703C195.883 29.8047 195.824 30.0977 195.754 30.4492C195.73 30.6602 195.719 30.8945 195.719 31.1523C195.742 31.3867 195.789 31.6094 195.859 31.8203C195.93 32.0312 196.035 32.207 196.176 32.3477C196.34 32.4648 196.562 32.5234 196.844 32.5234C197.078 32.5234 197.383 32.3828 197.758 32.1016C198.133 31.7969 198.531 31.4219 198.953 30.9766C199.375 30.5078 199.809 30.0039 200.254 29.4648C200.723 28.9023 201.156 28.3633 201.555 27.8477C201.953 27.332 202.305 26.875 202.609 26.4766C202.938 26.0781 203.172 25.7852 203.312 25.5977C203.5 25.3867 203.688 25.2695 203.875 25.2461C204.062 25.1992 204.203 25.2461 204.297 25.3867C204.391 25.5273 204.402 25.7383 204.332 26.0195C204.285 26.3008 204.121 26.6289 203.84 27.0039ZM193.539 28.5508C193.656 28.082 193.797 27.5312 193.961 26.8984C194.125 26.2656 194.266 25.6562 194.383 25.0703C194.5 24.4844 194.582 24.0039 194.629 23.6289C194.699 23.2305 194.688 23.043 194.594 23.0664C194.477 23.0898 194.348 23.125 194.207 23.1719C194.09 23.2188 193.938 23.2539 193.75 23.2773C193.562 23.3008 193.375 23.3359 193.188 23.3828C193.375 23.0078 193.48 22.7031 193.504 22.4688C193.551 22.2109 193.562 22.0117 193.539 21.8711C193.516 21.707 193.469 21.5781 193.398 21.4844C193.141 21.2734 192.684 21.4492 192.027 22.0117C191.395 22.5508 190.656 23.5586 189.812 25.0352C189.461 25.6445 189.18 26.3008 188.969 27.0039C188.758 27.6836 188.605 28.3281 188.512 28.9375C188.441 29.5469 188.43 30.0859 188.477 30.5547C188.523 31 188.617 31.293 188.758 31.4336C189.016 31.6914 189.309 31.8203 189.637 31.8203C189.965 31.7969 190.293 31.7031 190.621 31.5391C190.973 31.3516 191.312 31.1172 191.641 30.8359C191.992 30.5547 192.297 30.2617 192.555 29.957C192.836 29.6523 193.059 29.3711 193.223 29.1133C193.41 28.8555 193.516 28.668 193.539 28.5508ZM198.953 49.0117C198.789 48.9414 198.625 48.8359 198.461 48.6953C198.32 48.5781 198.18 48.4258 198.039 48.2383C197.898 48.0742 197.781 47.8633 197.688 47.6055C198.344 45.0977 198.906 42.918 199.375 41.0664C199.82 39.2148 200.207 37.668 200.535 36.4258C200.887 34.9727 201.191 33.7539 201.449 32.7695C201.684 31.832 201.918 30.8945 202.152 29.957C202.34 29.1367 202.539 28.2578 202.75 27.3203C202.984 26.3828 203.195 25.5039 203.383 24.6836C203.617 23.7695 203.758 23.043 203.805 22.5039C203.852 21.9414 203.676 21.4609 203.277 21.0625C203.559 20.8281 203.84 20.6523 204.121 20.5352C204.426 20.3945 204.695 20.3008 204.93 20.2539C205.188 20.1836 205.445 20.1602 205.703 20.1836C206.336 20.2305 206.723 20.4297 206.863 20.7812C207.027 21.1328 207.051 21.6953 206.934 22.4688C206.91 22.5859 206.887 22.6914 206.863 22.7852C206.863 22.8555 206.863 22.9375 206.863 23.0312C207.191 22.6562 207.555 22.293 207.953 21.9414C208.352 21.5898 208.75 21.2734 209.148 20.9922C209.57 20.7109 209.992 20.4883 210.414 20.3242C210.859 20.1367 211.281 20.043 211.68 20.043C212.219 20.043 212.652 20.1836 212.98 20.4648C213.332 20.7227 213.602 21.0742 213.789 21.5195C213.977 21.9648 214.094 22.4688 214.141 23.0312C214.188 23.5703 214.199 24.1094 214.176 24.6484C214.152 25.2344 214.047 25.8555 213.859 26.5117C213.695 27.168 213.461 27.8359 213.156 28.5156C212.852 29.1953 212.5 29.8633 212.102 30.5195C211.703 31.1758 211.281 31.7852 210.836 32.3477C210.93 32.3711 210.988 32.3945 211.012 32.418C211.035 32.418 211.047 32.4297 211.047 32.4531C211.047 32.4531 211.059 32.4648 211.082 32.4883C211.129 32.4883 211.211 32.4883 211.328 32.4883C211.867 32.4883 212.418 32.3477 212.98 32.0664C213.543 31.7852 214.094 31.4336 214.633 31.0117C215.172 30.5664 215.688 30.0859 216.18 29.5703C216.695 29.0547 217.152 28.5625 217.551 28.0938C217.973 27.6016 218.324 27.168 218.605 26.793C218.887 26.3945 219.098 26.1133 219.238 25.9492C219.426 25.7148 219.602 25.5625 219.766 25.4922C219.93 25.3984 220.059 25.3867 220.152 25.457C220.246 25.5273 220.293 25.668 220.293 25.8789C220.293 26.0664 220.223 26.3125 220.082 26.6172C219.988 26.8281 219.789 27.168 219.484 27.6367C219.18 28.1055 218.805 28.6328 218.359 29.2188C217.914 29.8047 217.398 30.4141 216.812 31.0469C216.25 31.6797 215.652 32.2539 215.02 32.7695C214.387 33.2852 213.73 33.707 213.051 34.0352C212.395 34.3867 211.75 34.5625 211.117 34.5625C210.812 34.5625 210.566 34.5508 210.379 34.5273C210.191 34.5039 210.027 34.457 209.887 34.3867C209.77 34.3398 209.652 34.2812 209.535 34.2109C209.418 34.1641 209.277 34.1055 209.113 34.0352C208.691 34.3633 208.258 34.6094 207.812 34.7734C207.367 34.9609 206.934 35.0547 206.512 35.0547C206.113 35.0547 205.762 34.9844 205.457 34.8438C205.176 34.7266 204.941 34.5508 204.754 34.3164C204.566 34.1055 204.414 33.8711 204.297 33.6133C204.18 33.332 204.086 33.0625 204.016 32.8047C203.992 32.8984 203.969 32.9805 203.945 33.0508C203.945 33.1211 203.934 33.2148 203.91 33.332C203.629 34.457 203.336 35.7578 203.031 37.2344C202.773 38.5 202.457 40.0352 202.082 41.8398C201.73 43.668 201.355 45.7422 200.957 48.0625C200.816 48.6953 200.57 49.0586 200.219 49.1523C199.844 49.2461 199.422 49.1992 198.953 49.0117ZM205.387 27.2148C205.27 27.6133 205.141 28.082 205 28.6211C204.883 29.1367 204.742 29.7578 204.578 30.4844C204.766 30.3438 204.977 30.2383 205.211 30.168C205.445 30.0977 205.68 30.0625 205.914 30.0625C206.172 30.0625 206.5 30.2031 206.898 30.4844C207.297 30.7422 207.777 31.0234 208.34 31.3281C208.691 30.9062 209.055 30.4375 209.43 29.9219C209.828 29.3828 210.18 28.832 210.484 28.2695C210.812 27.707 211.082 27.1328 211.293 26.5469C211.527 25.9609 211.656 25.3984 211.68 24.8594C211.727 24.1562 211.645 23.6055 211.434 23.207C211.223 22.8086 210.871 22.6094 210.379 22.6094C209.652 22.6094 208.855 23.043 207.988 23.9102C207.145 24.7539 206.277 25.8555 205.387 27.2148ZM215.195 49.0117C215.031 48.9414 214.867 48.8359 214.703 48.6953C214.562 48.5781 214.422 48.4258 214.281 48.2383C214.141 48.0742 214.023 47.8633 213.93 47.6055C214.586 45.0977 215.148 42.918 215.617 41.0664C216.062 39.2148 216.449 37.668 216.777 36.4258C217.129 34.9727 217.434 33.7539 217.691 32.7695C217.926 31.832 218.16 30.8945 218.395 29.957C218.582 29.1367 218.781 28.2578 218.992 27.3203C219.227 26.3828 219.438 25.5039 219.625 24.6836C219.859 23.7695 220 23.043 220.047 22.5039C220.094 21.9414 219.918 21.4609 219.52 21.0625C219.801 20.8281 220.082 20.6523 220.363 20.5352C220.668 20.3945 220.938 20.3008 221.172 20.2539C221.43 20.1836 221.688 20.1602 221.945 20.1836C222.578 20.2305 222.965 20.4297 223.105 20.7812C223.27 21.1328 223.293 21.6953 223.176 22.4688C223.152 22.5859 223.129 22.6914 223.105 22.7852C223.105 22.8555 223.105 22.9375 223.105 23.0312C223.434 22.6562 223.797 22.293 224.195 21.9414C224.594 21.5898 224.992 21.2734 225.391 20.9922C225.812 20.7109 226.234 20.4883 226.656 20.3242C227.102 20.1367 227.523 20.043 227.922 20.043C228.461 20.043 228.895 20.1836 229.223 20.4648C229.574 20.7227 229.844 21.0742 230.031 21.5195C230.219 21.9648 230.336 22.4688 230.383 23.0312C230.43 23.5703 230.441 24.1094 230.418 24.6484C230.395 25.2344 230.289 25.8555 230.102 26.5117C229.938 27.168 229.703 27.8359 229.398 28.5156C229.094 29.1953 228.742 29.8633 228.344 30.5195C227.945 31.1758 227.523 31.7852 227.078 32.3477C227.172 32.3711 227.23 32.3945 227.254 32.418C227.277 32.418 227.289 32.4297 227.289 32.4531C227.289 32.4531 227.301 32.4648 227.324 32.4883C227.371 32.4883 227.453 32.4883 227.57 32.4883C228.109 32.4883 228.66 32.3477 229.223 32.0664C229.785 31.7852 230.336 31.4336 230.875 31.0117C231.414 30.5664 231.93 30.0859 232.422 29.5703C232.938 29.0547 233.395 28.5625 233.793 28.0938C234.215 27.6016 234.566 27.168 234.848 26.793C235.129 26.3945 235.34 26.1133 235.48 25.9492C235.668 25.7148 235.844 25.5625 236.008 25.4922C236.172 25.3984 236.301 25.3867 236.395 25.457C236.488 25.5273 236.535 25.668 236.535 25.8789C236.535 26.0664 236.465 26.3125 236.324 26.6172C236.23 26.8281 236.031 27.168 235.727 27.6367C235.422 28.1055 235.047 28.6328 234.602 29.2188C234.156 29.8047 233.641 30.4141 233.055 31.0469C232.492 31.6797 231.895 32.2539 231.262 32.7695C230.629 33.2852 229.973 33.707 229.293 34.0352C228.637 34.3867 227.992 34.5625 227.359 34.5625C227.055 34.5625 226.809 34.5508 226.621 34.5273C226.434 34.5039 226.27 34.457 226.129 34.3867C226.012 34.3398 225.895 34.2812 225.777 34.2109C225.66 34.1641 225.52 34.1055 225.355 34.0352C224.934 34.3633 224.5 34.6094 224.055 34.7734C223.609 34.9609 223.176 35.0547 222.754 35.0547C222.355 35.0547 222.004 34.9844 221.699 34.8438C221.418 34.7266 221.184 34.5508 220.996 34.3164C220.809 34.1055 220.656 33.8711 220.539 33.6133C220.422 33.332 220.328 33.0625 220.258 32.8047C220.234 32.8984 220.211 32.9805 220.188 33.0508C220.188 33.1211 220.176 33.2148 220.152 33.332C219.871 34.457 219.578 35.7578 219.273 37.2344C219.016 38.5 218.699 40.0352 218.324 41.8398C217.973 43.668 217.598 45.7422 217.199 48.0625C217.059 48.6953 216.812 49.0586 216.461 49.1523C216.086 49.2461 215.664 49.1992 215.195 49.0117ZM221.629 27.2148C221.512 27.6133 221.383 28.082 221.242 28.6211C221.125 29.1367 220.984 29.7578 220.82 30.4844C221.008 30.3438 221.219 30.2383 221.453 30.168C221.688 30.0977 221.922 30.0625 222.156 30.0625C222.414 30.0625 222.742 30.2031 223.141 30.4844C223.539 30.7422 224.02 31.0234 224.582 31.3281C224.934 30.9062 225.297 30.4375 225.672 29.9219C226.07 29.3828 226.422 28.832 226.727 28.2695C227.055 27.707 227.324 27.1328 227.535 26.5469C227.77 25.9609 227.898 25.3984 227.922 24.8594C227.969 24.1562 227.887 23.6055 227.676 23.207C227.465 22.8086 227.113 22.6094 226.621 22.6094C225.895 22.6094 225.098 23.043 224.23 23.9102C223.387 24.7539 222.52 25.8555 221.629 27.2148Z" fill="#94C11F"/>
</svg>
